<svg xmlns="http://www.w3.org/2000/svg" width="32" height="32" viewBox="0 0 256 257"><defs><linearGradient id="a" x1="0%" x2="100%" y1="0%" y2="100%"><stop offset="0%" stop-color="#41D1FF"/><stop offset="100%" stop-color="#BD34FE"/></linearGradient></defs><path fill="url(#a)" d="M255.482 37.896c-.23-.001-.459.007-.687.025L127.994 48.016 1.199 37.921c-.228-.018-.457-.026-.687-.025C.23 37.896-.001 38.127 0 38.406s.231.51.51.51c.001 0 .002 0 .003 0l127.481 60.155L255.476 38.916c.159-.001.32-.07.424-.191a.512.512 0 0 0 .1-.347c0-.262-.212-.477-.474-.482h-.044z"/><path fill="#BD34FE" d="M128 48L32 232h192z"/><path fill="#41D1FF" d="M128 48L64 232h128z"/><path fill="white" d="M128 100L96 232h64z"/></svg>
